<svg xmlns="http://www.w3.org/2000/svg" viewBox="0 0 566.93 566.93">
  <g id="zone-1" data-color-id="BL004">
    <path class="st2" d="M537.51,528.34c-2,9.41-11.32,16.53-22.52,16.53-12.66,0-22.93-9.1-22.93-20.33,0-.49.02-.98.07-1.46-.33-2-.33-4.07.06-6.08-4.46-1.17-9.02-1.65-13.56-1.44-1.92.09-3.48,1.92-4.95,3.53-14.46,15.87-37.2,17.56-52.98,3.93-8.07,10.21-17.01,20.06-27.89,24.04-10.87,3.98-24.1.56-30.44-11.51-.74-1.41-1.38-2.92-1.84-4.51-2.74-9.62,1.47-20.13,6.21-28.36,7.37-12.8,17.76-24.79,30.12-24.73,7.96.03,15.74,2.81,23.41,5.57-7.79-8.87-6.35-26.85,1.75-35.24,8.1-8.38,20.52-7.47,29.07.15-1.51-25.51,12.83-42.04,30.01-49.49,7.84-3.4,16.6-3.26,24.46-.03.1.04,18.83,16.21,18.32,16.75,7.86-8.35,19.05-11.18,28.77-7.25,5.54,2.24,10.51,6.63,14.27,12.33V0h-294.35c1.77,10.66-3.2,22.19-11.21,29.79-9.34,8.85-22.01,13.26-34.55,16.15,2.76,15.25-15.16,26.2-30.58,27.68-18.6,1.79-37.78-3.23-53.13-13.89-8.07,12.36-22.55,20.27-37.31,20.38-14.76.11-29.36-7.57-37.61-19.81-3.61,23.88-29.28,37.05-52.25,44.5-5.26,1.7-10.58,3.31-15.94,4.78v112.64c10.33,6.75,18.41,16.49,21.89,28.44,3.61,12.41,1.27,27.7-9.37,35.02,12.25-3.56,26.6,5.25,28.98,17.78s-7.76,25.98-20.47,27.15c22.97-.63,48.47,14.81,49.22,37.78.68,20.86-18.19,36.76-36.32,47.1-10.63,6.06-22.11,11.44-33.92,15.06v136.38h566.93v-34.45c-9.83,2.99-20.5,1.73-29.41-4.14Z" fill="#669ccc"/>
  </g>
  <g id="zone-2" data-color-id="WT000">
    <path class="st0" d="M552.65,408.41c-9.72-3.93-20.91-1.1-28.77,7.25.51-.54-18.22-16.71-18.32-16.75-7.86-3.23-16.62-3.37-24.46.03-17.18,7.45-31.52,23.98-30.01,49.49-8.55-7.62-20.97-8.53-29.07-.15-8.1,8.39-9.54,26.37-1.75,35.24-7.67-2.76-15.45-5.54-23.41-5.57-12.36-.06-22.75,11.93-30.12,24.73-4.74,8.23-8.95,18.74-6.21,28.36.46,1.59,1.1,3.1,1.84,4.51,6.34,12.07,19.57,15.49,30.44,11.51,10.88-3.98,19.82-13.83,27.89-24.04,15.78,13.63,38.52,11.94,52.98-3.93,1.47-1.61,3.03-3.44,4.95-3.53,4.54-.21,9.1.27,13.56,1.44-.39,2.01-.39,4.08-.06,6.08-.05.48-.07.97-.07,1.46,0,11.23,10.27,20.33,22.93,20.33,11.2,0,20.52-7.12,22.52-16.53,8.91,5.87,19.59,7.14,29.41,4.14v-111.74c-3.76-5.7-8.73-10.1-14.27-12.33Z" fill="#f7f7f7"/>
    <path class="st0" d="M68.19,60.3c8.25,12.24,22.85,19.92,37.61,19.81,14.76-.11,29.24-8.02,37.31-20.38,15.35,10.66,34.53,15.68,53.13,13.89,15.42-1.48,33.34-12.43,30.58-27.68,12.54-2.89,25.21-7.3,34.55-16.15,8.01-7.6,12.98-19.13,11.21-29.79H0v109.58c5.36-1.46,10.68-3.07,15.94-4.78,22.97-7.45,48.64-20.62,52.25-44.5Z" fill="#f7f7f7"/>
    <path class="st0" d="M70.24,368.39c-.75-22.96-26.25-38.41-49.22-37.78,12.71-1.16,22.84-14.61,20.47-27.15s-16.73-21.34-28.98-17.78c10.64-7.32,12.98-22.62,9.37-35.02-3.48-11.96-11.56-21.69-21.89-28.44v208.33c11.81-3.62,23.28-9,33.92-15.06,18.14-10.34,37-26.23,36.32-47.1Z" fill="#f7f7f7"/>
  </g>
</svg>