<svg xmlns="http://www.w3.org/2000/svg" viewBox="0 0 566.93 566.93">
  <g id="zone-1" data-color-id="BL012">
    <path d="M524.35,323.26c-7.6-1-15.19-2.28-22.75-3.83-.28-.06-.56-.12-.84-.17-2.24-.46-4.48-.95-6.71-1.46-.52-.12-1.05-.24-1.57-.36-1.78-.42-3.56-.85-5.34-1.3-1.22-.31-2.44-.62-3.66-.95-.62-.16-1.23-.33-1.85-.5-41.61-11.25-79.92-30.53-113.16-56.09-.02.02-.03.04-.04.06-22.23-17.05-42.5-37.16-60.11-60.17,0,0,.02-.01.03-.02-19.23-25.01-34.9-52.89-46.28-82.89-.12-.31-.23-.61-.35-.92-.58-1.53-1.14-3.07-1.7-4.61-.02-.06-.04-.11-.06-.17-1.06-2.96-2.07-5.94-3.05-8.94-.16-.48-.32-.97-.47-1.45-.47-1.47-.93-2.94-1.38-4.42-.09-.3-.18-.61-.27-.91-.81-2.7-1.59-5.41-2.33-8.13-.19-.7-.38-1.4-.57-2.1-.36-1.37-.73-2.75-1.07-4.13-.18-.72-.35-1.45-.53-2.18-.55-2.27-1.09-4.55-1.59-6.84-.2-.91-.4-1.83-.6-2.75-.27-1.27-.54-2.55-.79-3.82-.26-1.29-.5-2.58-.74-3.87-.32-1.74-.64-3.47-.93-5.22-.18-1.07-.36-2.13-.53-3.2-.19-1.21-.39-2.42-.57-3.64-.28-1.89-.55-3.79-.8-5.69-1.82-13.94-2.77-28.15-2.77-42.58H0h77.95s-37.85,16.61-37.85,16.61l15.01,38.51-38.51-15.01L0,77.95v162.99c14.43,0,28.64.95,42.58,2.77,0-.01,0-.03,0-.04,7.6,1,15.19,2.28,22.75,3.83.28.06.56.12.85.17,2.24.46,4.47.95,6.71,1.46.52.12,1.05.24,1.57.36,1.78.42,3.56.85,5.34,1.3,1.22.31,2.44.62,3.66.95.62.16,1.23.33,1.85.5,41.61,11.25,79.92,30.53,113.16,56.09.02-.02.03-.04.04-.06,22.23,17.05,42.5,37.16,60.11,60.17,0,0-.02.01-.03.02,19.23,25.01,34.9,52.89,46.28,82.89.12.31.23.61.35.92.58,1.53,1.14,3.07,1.7,4.61.02.06.04.11.06.17,1.06,2.96,2.07,5.94,3.05,8.94.16.48.32.97.47,1.45.47,1.47.93,2.94,1.38,4.42.09.3.18.61.27.91.81,2.69,1.59,5.4,2.33,8.13.19.7.38,1.41.57,2.12.36,1.37.72,2.74,1.07,4.12.18.72.35,1.45.53,2.18.55,2.27,1.09,4.55,1.59,6.84.2.91.4,1.83.6,2.75.27,1.27.54,2.55.79,3.82.26,1.29.5,2.58.74,3.87.32,1.74.64,3.47.93,5.22.18,1.07.36,2.13.53,3.2.19,1.21.39,2.42.57,3.64.28,1.89.55,3.79.8,5.69,1.82,13.94,2.77,28.15,2.77,42.58h-85.04c0-9.91-.61-19.68-1.78-29.28-.15-1.24-.31-2.47-.48-3.7-.06-.41-.11-.81-.17-1.22-.53-3.74-1.15-7.46-1.85-11.14-.08-.45-.17-.89-.26-1.34-.22-1.13-.45-2.26-.69-3.39-.09-.44-.19-.87-.28-1.3-.43-2-.89-3.99-1.38-5.97-.13-.52-.25-1.05-.38-1.57-.25-1.01-.52-2.01-.78-3.02-.17-.65-.35-1.3-.53-1.94-.34-1.23-.68-2.45-1.04-3.67-.32-1.1-.65-2.21-.98-3.3-.27-.87-.54-1.73-.82-2.59-.25-.78-.5-1.57-.76-2.35-.27-.83-.55-1.66-.83-2.49-.35-1.01-.7-2.01-1.06-3.01-.39-1.07-.78-2.15-1.18-3.21-.35-.93-.7-1.86-1.06-2.79-.29-.75-.59-1.5-.89-2.24-.37-.91-.74-1.82-1.12-2.73-.28-.67-.55-1.33-.83-2-24.37-57.28-70.28-103.2-127.57-127.57,0,.01-.01.03-.02.04-10.19-4.34-20.55-7.93-31.01-10.78-.57-.15-1.14-.31-1.71-.46-.82-.22-1.63-.42-2.45-.63-1.41-.35-2.82-.7-4.23-1.03-.17-.04-.34-.08-.5-.12-17.46-4.02-35.64-6.15-54.32-6.15v162.99l16.61,37.85,38.51-15.01-15.01,38.51,37.85,16.61h411.02l37.85-16.61-15.01-38.51,38.51,15.01,16.61-37.85v-162.99c-14.43,0-28.64-.95-42.58-2.77,0,.01,0,.03,0,.04Z" fill="#b3cbe6"/>
    <path d="M511.81,55.12l15.01-38.51L488.98,0h-162.99c0,9.91.61,19.68,1.78,29.28.15,1.24.31,2.47.48,3.7.06.41.11.81.17,1.22.53,3.74,1.15,7.46,1.85,11.14.08.45.17.89.26,1.34.22,1.13.45,2.26.69,3.39.09.44.19.87.28,1.3.43,2,.89,3.99,1.38,5.97.13.52.25,1.05.38,1.57.25,1.01.52,2.01.78,3.02.17.65.35,1.3.53,1.94.34,1.23.68,2.45,1.04,3.67.32,1.1.65,2.21.98,3.3.27.87.54,1.73.82,2.59.25.78.5,1.57.76,2.35.27.83.55,1.66.83,2.49.35,1.01.7,2.01,1.06,3.01.39,1.07.78,2.15,1.18,3.21.35.93.7,1.86,1.06,2.79.29.75.59,1.5.89,2.24.37.91.74,1.82,1.12,2.73.28.67.55,1.33.83,2,24.37,57.28,70.28,103.2,127.57,127.57,0-.01.01-.03.02-.04,10.19,4.34,20.55,7.93,31.01,10.78.57.15,1.14.31,1.71.46.81.22,1.63.42,2.45.63,1.41.35,2.82.7,4.24,1.03.17.04.33.08.5.12,17.46,4.02,35.64,6.15,54.33,6.15V77.95l-16.61-37.85-38.51,15.01Z" fill="#b3cbe6"/>
  </g>
  <g id="zone-2" data-color-id="GN009">
    <path d="M261.71,114.66c-.58-1.53-1.14-3.07-1.7-4.61.55,1.54,1.12,3.08,1.7,4.61Z" fill="#b1ad5d"/>
    <path d="M254.78,94.16c-.81-2.7-1.59-5.41-2.33-8.13.74,2.73,1.52,5.44,2.33,8.13Z" fill="#b1ad5d"/>
    <path d="M256.43,99.49c-.47-1.47-.93-2.94-1.38-4.42.45,1.48.91,2.95,1.38,4.42Z" fill="#b1ad5d"/>
    <path d="M259.95,109.87c-1.06-2.96-2.07-5.94-3.05-8.94.98,3,1.99,5.98,3.05,8.94Z" fill="#b1ad5d"/>
    <path d="M487.13,316.13c-1.22-.31-2.44-.62-3.66-.95,1.22.32,2.44.64,3.66.95Z" fill="#b1ad5d"/>
    <path d="M507.87,233.64c1.41.36,2.82.7,4.24,1.03-1.42-.33-2.83-.68-4.24-1.03Z" fill="#b1ad5d"/>
    <path d="M251.87,83.92c-.36-1.37-.72-2.75-1.07-4.13.35,1.38.71,2.75,1.07,4.13Z" fill="#b1ad5d"/>
    <path d="M494.04,317.8c-.52-.12-1.05-.24-1.57-.36.52.12,1.05.24,1.57.36Z" fill="#b1ad5d"/>
    <path d="M501.59,319.43c-.28-.06-.56-.12-.84-.17.28.06.56.12.84.17Z" fill="#b1ad5d"/>
    <path d="M250.27,77.62c-.56-2.27-1.09-4.55-1.59-6.84.51,2.29,1.04,4.57,1.59,6.84Z" fill="#b1ad5d"/>
    <path d="M344.88,94.35c-4.26,1.63-9-.39-10.82-4.51,1.41,4.28-.77,8.96-5.02,10.6-4.26,1.63-9-.39-10.82-4.51,1.41,4.28-.77,8.96-5.02,10.59-4.26,1.63-9-.39-10.82-4.51,1.41,4.28-.77,8.96-5.02,10.6-4.26,1.63-9-.39-10.82-4.51,1.41,4.28-.77,8.96-5.02,10.59-4.26,1.63-9-.39-10.82-4.51,1.4,4.27-.76,8.93-4.98,10.58-1.26-3.03-2.47-6.09-3.63-9.17,11.38,30,27.05,57.88,46.28,82.89,3.54-2.79,8.61-2.32,11.59,1.02-2.66-3.64-2.04-8.76,1.5-11.63,3.54-2.87,8.68-2.42,11.69.95-2.66-3.64-2.04-8.76,1.5-11.63,3.54-2.87,8.68-2.42,11.69.95-2.66-3.64-2.04-8.76,1.5-11.63,3.54-2.87,8.68-2.42,11.69.95-2.66-3.64-2.04-8.76,1.5-11.63,3.54-2.87,8.68-2.42,11.69.95-2.66-3.64-2.04-8.76,1.5-11.63.08-.07.17-.12.25-.18,13.78,18.35,29.83,34.27,47.52,47.58-.05.07-.1.14-.15.21-2.87,3.54-7.99,4.17-11.63,1.5,3.36,3,3.82,8.15.95,11.69-2.87,3.54-7.99,4.17-11.63,1.5,3.36,3,3.82,8.15.95,11.69-2.87,3.54-7.99,4.17-11.63,1.5,3.36,3,3.82,8.15.95,11.69-2.87,3.54-7.99,4.17-11.63,1.5,3.36,3,3.82,8.15.95,11.69-2.87,3.54-7.99,4.17-11.63,1.5,3.33,2.98,3.8,8.05,1.02,11.59,33.24,25.55,71.55,44.83,113.16,56.09-13.29-3.61-26.46-8.09-39.42-13.48,1.66-4.2,6.3-6.35,10.56-4.95-4.13-1.82-6.15-6.57-4.51-10.82,1.63-4.26,6.31-6.43,10.59-5.02-4.13-1.82-6.15-6.57-4.51-10.82,1.63-4.26,6.31-6.43,10.6-5.02-4.13-1.82-6.15-6.57-4.51-10.82,1.63-4.26,6.31-6.43,10.59-5.02-4.13-1.82-6.15-6.57-4.51-10.82,1.63-4.26,6.31-6.43,10.6-5.02-4.13-1.82-6.15-6.57-4.51-10.82.03-.08.07-.16.11-.24-57.28-24.37-103.2-70.28-127.57-127.57,0,0,0,0,0,0-.08.03-.16.07-.24.11Z" fill="#b1ad5d"/>
    <path d="M253.28,49.26c-.49-4.48,2.61-8.61,7.12-9.32,4.5-.71,8.73,2.25,9.65,6.66-.49-4.48,2.62-8.61,7.12-9.32,4.5-.71,8.73,2.25,9.65,6.66-.49-4.48,2.61-8.61,7.12-9.32,4.5-.71,8.73,2.25,9.65,6.66-.49-4.48,2.62-8.61,7.12-9.32,4.5-.71,8.73,2.25,9.65,6.66-.49-4.48,2.61-8.61,7.12-9.32.1-.02.2-.02.31-.03-1.16-9.6-1.78-19.37-1.78-29.28h-85.04c0,14.43.95,28.64,2.77,42.58,4.47-.66,8.65,2.29,9.56,6.67Z" fill="#b1ad5d"/>
    <path d="M537.65,239.22c-.01.09-.01.17-.03.26-.71,4.5-4.84,7.61-9.32,7.12,4.41.92,7.38,5.15,6.66,9.65-.71,4.5-4.84,7.61-9.32,7.12,4.41.92,7.38,5.15,6.66,9.65-.71,4.5-4.84,7.61-9.32,7.12,4.41.92,7.38,5.15,6.66,9.65-.71,4.5-4.84,7.61-9.32,7.12,4.41.92,7.38,5.15,6.66,9.65-.71,4.5-4.84,7.61-9.32,7.12,4.39.92,7.33,5.09,6.67,9.56,13.94,1.82,28.15,2.77,42.58,2.77v-85.04c-18.68,0-36.87-2.13-54.33-6.15,8.31,1.93,16.66,3.4,25.04,4.42Z" fill="#b1ad5d"/>
    <path d="M503.72,232.55c.57.16,1.14.31,1.71.46-.57-.15-1.14-.31-1.71-.46Z" fill="#b1ad5d"/>
    <path d="M248.08,68.03c-.27-1.27-.54-2.55-.79-3.82.26,1.28.52,2.55.79,3.82Z" fill="#b1ad5d"/>
    <path d="M246.54,60.33c-.32-1.73-.64-3.47-.93-5.22.3,1.74.61,3.48.93,5.22Z" fill="#b1ad5d"/>
    <path d="M245.08,51.91c-.19-1.21-.39-2.42-.57-3.64.18,1.22.37,2.43.57,3.64Z" fill="#b1ad5d"/>
    <path d="M330.27,45.34c.08.45.17.89.26,1.34-.09-.45-.17-.89-.26-1.34Z" fill="#b1ad5d"/>
    <path d="M334.03,61.92c.17.65.35,1.3.53,1.94-.18-.65-.35-1.29-.53-1.94Z" fill="#b1ad5d"/>
    <path d="M337.4,73.43c.25.78.5,1.57.76,2.35-.26-.78-.51-1.56-.76-2.35Z" fill="#b1ad5d"/>
    <path d="M335.6,67.53c.32,1.1.65,2.21.98,3.3-.34-1.1-.66-2.2-.98-3.3Z" fill="#b1ad5d"/>
    <path d="M338.99,78.26c.35,1.01.7,2.01,1.06,3.01-.36-1-.72-2.01-1.06-3.01Z" fill="#b1ad5d"/>
    <path d="M332.87,57.33c.13.52.25,1.05.38,1.57-.13-.52-.26-1.05-.38-1.57Z" fill="#b1ad5d"/>
    <path d="M341.23,84.49c.35.93.7,1.86,1.06,2.79-.36-.93-.71-1.86-1.06-2.79Z" fill="#b1ad5d"/>
    <path d="M328.24,32.98c.06.41.11.81.17,1.22-.06-.41-.11-.81-.17-1.22Z" fill="#b1ad5d"/>
    <path d="M331.21,50.06c.09.44.19.87.28,1.3-.09-.43-.19-.87-.28-1.3Z" fill="#b1ad5d"/>
    <path d="M343.18,89.51c.37.91.74,1.82,1.12,2.73-.38-.91-.75-1.82-1.12-2.73Z" fill="#b1ad5d"/>
    <polygon points="0 240.94 0 325.98 0 325.98 0 240.94 0 240.94" fill="#b1ad5d"/>
    <path d="M225.7,482.44c-.35-.93-.7-1.86-1.06-2.79.36.93.71,1.86,1.06,2.79Z" fill="#b1ad5d"/>
    <path d="M231.33,499.39c-.32-1.1-.65-2.21-.98-3.3.34,1.1.66,2.2.98,3.3Z" fill="#b1ad5d"/>
    <path d="M227.94,488.67c-.35-1.01-.7-2.01-1.06-3.01.36,1,.72,2.01,1.06,3.01Z" fill="#b1ad5d"/>
    <path d="M229.53,493.5c-.25-.78-.5-1.57-.76-2.35.26.78.51,1.56.76,2.35Z" fill="#b1ad5d"/>
    <path d="M313.65,517.67c.49,4.48-2.61,8.61-7.12,9.32-4.5.71-8.73-2.25-9.65-6.66.49,4.48-2.62,8.61-7.12,9.32-4.5.71-8.73-2.25-9.65-6.66.49,4.48-2.61,8.61-7.12,9.32-4.5.71-8.73-2.25-9.65-6.66.49,4.48-2.62,8.61-7.12,9.32-4.5.71-8.73-2.25-9.65-6.66.49,4.48-2.61,8.61-7.12,9.32-.1.02-.2.02-.31.03,1.16,9.6,1.78,19.37,1.78,29.28h85.04c0-14.43-.95-28.64-2.77-42.58-4.47.66-8.65-2.29-9.56-6.67Z" fill="#b1ad5d"/>
    <path d="M114.17,270.67c4.13,1.82,6.15,6.57,4.51,10.82-1.63,4.26-6.31,6.43-10.59,5.02,4.13,1.82,6.15,6.57,4.51,10.82-1.63,4.26-6.31,6.43-10.6,5.02,4.13,1.82,6.15,6.57,4.51,10.82-1.63,4.26-6.31,6.43-10.59,5.02,4.13,1.82,6.15,6.57,4.51,10.82-1.63,4.26-6.31,6.43-10.6,5.02,4.13,1.82,6.15,6.57,4.51,10.82-.03.08-.07.16-.11.24,57.28,24.37,103.2,70.28,127.57,127.57,0,0,0,0,0,0,.08-.03.16-.07.24-.11,4.26-1.63,9,.39,10.82,4.51-1.41-4.28.77-8.96,5.02-10.6,4.26-1.63,9,.39,10.82,4.51-1.41-4.28.77-8.96,5.02-10.59,4.26-1.63,9,.39,10.82,4.51-1.41-4.28.77-8.96,5.02-10.6,4.26-1.63,9,.39,10.82,4.51-1.41-4.28.77-8.96,5.02-10.59,4.26-1.63,9,.39,10.82,4.51-1.4-4.27.76-8.93,4.98-10.58,1.26,3.03,2.47,6.09,3.63,9.17-11.38-30-27.05-57.88-46.28-82.89-3.54,2.79-8.61,2.32-11.59-1.02,2.66,3.64,2.04,8.76-1.5,11.63-3.54,2.87-8.68,2.42-11.69-.95,2.66,3.64,2.04,8.76-1.5,11.63-3.54,2.87-8.68,2.42-11.69-.95,2.66,3.64,2.04,8.76-1.5,11.63-3.54,2.87-8.68,2.42-11.69-.95,2.66,3.64,2.04,8.76-1.5,11.63-3.54,2.87-8.68,2.42-11.69-.95,2.66,3.64,2.04,8.76-1.5,11.63-.08.07-.17.12-.25.18-13.78-18.35-29.83-34.27-47.52-47.58.05-.07.1-.14.15-.21,2.87-3.54,7.99-4.17,11.63-1.5-3.36-3-3.82-8.15-.95-11.69,2.87-3.54,7.99-4.17,11.63-1.5-3.36-3-3.82-8.15-.95-11.69,2.87-3.54,7.99-4.17,11.63-1.5-3.36-3-3.82-8.15-.95-11.69,2.87-3.54,7.99-4.17,11.63-1.5-3.36-3-3.82-8.15-.95-11.69,2.87-3.54,7.99-4.17,11.63-1.5-3.33-2.98-3.8-8.05-1.02-11.59-33.24-25.55-71.55-44.83-113.16-56.09,13.29,3.61,26.46,8.09,39.42,13.48-1.66,4.2-6.3,6.35-10.56,4.95Z" fill="#b1ad5d"/>
    <path d="M29.28,327.71c.01-.09.01-.17.03-.26.71-4.5,4.84-7.61,9.32-7.12-4.41-.92-7.38-5.15-6.66-9.65.71-4.5,4.84-7.61,9.32-7.12-4.41-.92-7.38-5.15-6.66-9.65.71-4.5,4.84-7.61,9.32-7.12-4.41-.92-7.38-5.15-6.66-9.65.71-4.5,4.84-7.61,9.32-7.12-4.41-.92-7.38-5.15-6.66-9.65.71-4.5,4.84-7.61,9.32-7.12-4.39-.92-7.33-5.09-6.67-9.56-13.94-1.82-28.14-2.77-42.58-2.77v85.04c18.68,0,36.86,2.13,54.32,6.15-8.31-1.93-16.66-3.4-25.04-4.42Z" fill="#b1ad5d"/>
    <path d="M223.75,477.41c-.37-.91-.74-1.82-1.12-2.73.38.91.75,1.82,1.12,2.73Z" fill="#b1ad5d"/>
    <path d="M59.06,333.29c-1.41-.36-2.82-.7-4.23-1.03,1.42.33,2.82.68,4.23,1.03Z" fill="#b1ad5d"/>
    <path d="M232.9,505.01c-.17-.65-.35-1.3-.53-1.94.18.65.35,1.29.53,1.94Z" fill="#b1ad5d"/>
    <path d="M305.22,452.27c.58,1.53,1.14,3.07,1.7,4.61-.55-1.54-1.12-3.08-1.7-4.61Z" fill="#b1ad5d"/>
    <path d="M306.98,457.06c1.06,2.96,2.07,5.94,3.05,8.94-.98-3-1.99-5.98-3.05-8.94Z" fill="#b1ad5d"/>
    <path d="M310.5,467.44c.47,1.47.93,2.94,1.38,4.42-.45-1.48-.91-2.95-1.38-4.42Z" fill="#b1ad5d"/>
    <path d="M312.15,472.77c.81,2.69,1.59,5.4,2.33,8.13-.74-2.72-1.52-5.43-2.33-8.13Z" fill="#b1ad5d"/>
    <path d="M315.06,483.01c.36,1.37.72,2.74,1.07,4.12-.35-1.38-.71-2.75-1.07-4.12Z" fill="#b1ad5d"/>
    <path d="M234.06,509.6c-.13-.52-.25-1.05-.38-1.57.13.52.26,1.05.38,1.57Z" fill="#b1ad5d"/>
    <path d="M65.34,247.5c.28.06.56.12.85.17-.28-.06-.56-.12-.85-.17Z" fill="#b1ad5d"/>
    <path d="M72.89,249.13c.52.12,1.05.24,1.57.36-.52-.12-1.05-.24-1.57-.36Z" fill="#b1ad5d"/>
    <path d="M79.8,250.8c1.22.31,2.44.62,3.66.95-1.22-.32-2.44-.64-3.66-.95Z" fill="#b1ad5d"/>
    <path d="M316.66,489.31c.56,2.27,1.09,4.55,1.59,6.84-.51-2.29-1.04-4.57-1.59-6.84Z" fill="#b1ad5d"/>
    <path d="M238.69,533.95c-.06-.41-.11-.81-.17-1.22.06.41.11.81.17,1.22Z" fill="#b1ad5d"/>
    <path d="M235.72,516.87c-.09-.44-.19-.87-.28-1.3.09.43.19.87.28,1.3Z" fill="#b1ad5d"/>
    <path d="M236.66,521.59c-.08-.45-.17-.89-.26-1.34.09.45.17.89.26,1.34Z" fill="#b1ad5d"/>
    <path d="M318.85,498.9c.27,1.27.54,2.55.79,3.82-.26-1.28-.52-2.55-.79-3.82Z" fill="#b1ad5d"/>
    <path d="M320.39,506.59c.32,1.73.64,3.47.93,5.22-.3-1.74-.61-3.48-.93-5.22Z" fill="#b1ad5d"/>
    <path d="M321.85,515.01c.19,1.21.39,2.42.57,3.64-.18-1.22-.37-2.43-.57-3.64Z" fill="#b1ad5d"/>
    <path d="M63.21,334.38c-.57-.16-1.14-.31-1.71-.46.57.15,1.14.31,1.71.46Z" fill="#b1ad5d"/>
  </g>
  <g id="zone-3" data-color-id="BW001">
    <polygon points="526.83 16.61 511.81 55.12 550.32 40.11 566.93 77.95 566.93 0 488.98 0 526.83 16.61" fill="#935b43"/>
    <polygon points="0 77.95 16.62 40.11 55.12 55.12 40.11 16.61 77.96 0 0 0 0 77.95" fill="#935b43"/>
    <polygon points="511.81 511.81 526.83 550.32 488.98 566.93 566.93 566.93 566.93 488.98 550.32 526.82 511.81 511.81" fill="#935b43"/>
    <polygon points="55.12 511.81 16.62 526.82 0 488.98 0 566.93 77.96 566.93 40.11 550.32 55.12 511.81" fill="#935b43"/>
  </g>
  <g id="zone-4" data-color-id="WT000">
    <path d="M245.08,51.91c.17,1.07.35,2.13.53,3.2.3,1.74.61,3.48.93,5.22.24,1.29.48,2.58.74,3.87.26,1.28.52,2.55.79,3.82.19.92.4,1.83.6,2.75.51,2.29,1.04,4.57,1.59,6.84.18.73.35,1.45.53,2.18.35,1.38.71,2.75,1.07,4.13.19.7.38,1.4.57,2.1.74,2.73,1.52,5.44,2.33,8.13.09.3.18.61.27.91.45,1.48.91,2.95,1.38,4.42.16.48.31.97.47,1.45.98,3,1.99,5.98,3.05,8.94.02.06.04.11.06.17.55,1.54,1.12,3.08,1.7,4.61.12.31.23.61.35.92,1.17,3.08,2.38,6.14,3.63,9.17,4.23-1.65,6.39-6.31,4.98-10.58,1.82,4.13,6.57,6.15,10.82,4.51,4.26-1.63,6.43-6.31,5.02-10.59,1.82,4.13,6.57,6.15,10.82,4.51,4.26-1.63,6.43-6.31,5.02-10.6,1.82,4.13,6.57,6.15,10.82,4.51,4.26-1.63,6.43-6.31,5.02-10.59,1.82,4.13,6.57,6.15,10.82,4.51,4.26-1.63,6.43-6.31,5.02-10.6,1.82,4.13,6.57,6.15,10.82,4.51.08-.03.16-.07.24-.11,0,0,0,0,0,0-.28-.66-.55-1.33-.83-2-.38-.91-.75-1.82-1.12-2.73-.3-.75-.59-1.49-.89-2.24-.36-.93-.71-1.86-1.06-2.79-.4-1.07-.79-2.14-1.18-3.21-.36-1-.72-2.01-1.06-3.01-.28-.83-.56-1.66-.83-2.49-.26-.78-.51-1.56-.76-2.35-.28-.86-.55-1.72-.82-2.59-.34-1.1-.66-2.2-.98-3.3-.36-1.22-.7-2.45-1.04-3.67-.18-.65-.35-1.29-.53-1.94-.27-1-.53-2.01-.78-3.02-.13-.52-.26-1.05-.38-1.57-.48-1.98-.94-3.97-1.38-5.97-.09-.43-.19-.87-.28-1.3-.24-1.13-.47-2.26-.69-3.39-.09-.45-.17-.89-.26-1.34-.7-3.68-1.32-7.4-1.85-11.14-.06-.41-.11-.81-.17-1.22-.17-1.23-.33-2.46-.48-3.7-.1.01-.2.02-.31.03-4.5.71-7.61,4.84-7.12,9.32-.92-4.41-5.15-7.38-9.65-6.66-4.5.71-7.6,4.84-7.12,9.32-.92-4.41-5.15-7.38-9.65-6.66-4.5.71-7.61,4.84-7.12,9.32-.92-4.41-5.15-7.38-9.65-6.66-4.5.71-7.6,4.84-7.12,9.32-.92-4.41-5.15-7.38-9.65-6.66-4.5.71-7.61,4.84-7.12,9.32-.92-4.39-5.09-7.33-9.56-6.67.25,1.9.52,3.8.8,5.69.18,1.22.37,2.43.57,3.64Z" fill="#f7f7f7"/>
    <path d="M374.45,144.94c-.08.06-.17.12-.25.18-3.54,2.87-4.17,7.99-1.5,11.63-3-3.36-8.15-3.82-11.69-.95-3.54,2.87-4.17,7.99-1.5,11.63-3-3.36-8.15-3.82-11.69-.95-3.54,2.87-4.17,7.99-1.5,11.63-3-3.36-8.15-3.82-11.69-.95-3.54,2.87-4.17,7.99-1.5,11.63-3-3.36-8.15-3.82-11.69-.95-3.54,2.87-4.17,7.99-1.5,11.63-2.98-3.33-8.05-3.8-11.59-1.02,0,0-.02.01-.03.02,17.61,23.01,37.88,43.12,60.11,60.17.02-.02.03-.04.04-.06,2.79-3.54,2.32-8.61-1.02-11.59,3.64,2.66,8.76,2.04,11.63-1.5,2.87-3.54,2.42-8.68-.95-11.69,3.64,2.66,8.76,2.04,11.63-1.5,2.87-3.54,2.42-8.68-.95-11.69,3.64,2.66,8.76,2.04,11.63-1.5,2.87-3.54,2.42-8.68-.95-11.69,3.64,2.66,8.76,2.04,11.63-1.5,2.87-3.54,2.42-8.68-.95-11.69,3.64,2.66,8.76,2.04,11.63-1.5.06-.07.1-.14.15-.21-17.69-13.31-33.73-29.23-47.52-47.58Z" fill="#f7f7f7"/>
    <path d="M512.11,234.68c-1.41-.33-2.83-.68-4.24-1.03-.82-.21-1.63-.42-2.45-.63-.57-.15-1.14-.31-1.71-.46-10.46-2.85-20.82-6.44-31.01-10.78,0,.01-.01.03-.02.04-.04.08-.07.16-.11.24-1.63,4.26.39,9,4.51,10.82-4.28-1.41-8.96.77-10.6,5.02-1.63,4.26.39,9,4.51,10.82-4.28-1.41-8.96.77-10.59,5.02-1.63,4.26.39,9,4.51,10.82-4.28-1.41-8.96.77-10.6,5.02-1.63,4.26.39,9,4.51,10.82-4.28-1.41-8.96.77-10.59,5.02-1.63,4.26.39,9,4.51,10.82-4.26-1.4-8.9.74-10.56,4.95,12.97,5.39,26.13,9.87,39.42,13.48.62.17,1.23.34,1.85.5,1.22.32,2.44.64,3.66.95,1.77.45,3.55.88,5.34,1.3.52.12,1.05.24,1.57.36,2.23.51,4.46,1,6.71,1.46.28.06.56.12.84.17,7.56,1.55,15.15,2.83,22.75,3.83,0-.01,0-.03,0-.04.66-4.47-2.29-8.65-6.67-9.56,4.48.49,8.61-2.61,9.32-7.12.71-4.5-2.25-8.73-6.66-9.65,4.48.49,8.61-2.62,9.32-7.12.71-4.5-2.25-8.73-6.66-9.65,4.48.49,8.61-2.61,9.32-7.12.71-4.5-2.25-8.73-6.66-9.65,4.48.49,8.61-2.61,9.32-7.12.71-4.5-2.25-8.73-6.66-9.65,4.48.49,8.61-2.61,9.32-7.12.01-.09.02-.17.03-.26-8.38-1.02-16.73-2.49-25.04-4.42-.17-.04-.33-.08-.5-.12Z" fill="#f7f7f7"/>
    <path d="M321.85,515.01c-.17-1.07-.35-2.13-.53-3.2-.3-1.74-.61-3.48-.93-5.22-.24-1.29-.48-2.58-.74-3.87-.26-1.28-.52-2.55-.79-3.82-.19-.92-.4-1.83-.6-2.75-.51-2.29-1.04-4.57-1.59-6.84-.18-.73-.35-1.45-.53-2.18-.35-1.38-.71-2.75-1.07-4.12-.19-.71-.38-1.41-.57-2.12-.74-2.72-1.52-5.43-2.33-8.13-.09-.3-.18-.61-.27-.91-.45-1.48-.91-2.95-1.38-4.42-.16-.48-.31-.97-.47-1.45-.98-3-1.99-5.98-3.05-8.94-.02-.06-.04-.11-.06-.17-.55-1.54-1.12-3.08-1.7-4.61-.12-.31-.23-.61-.35-.92-1.17-3.08-2.38-6.14-3.63-9.17-4.23,1.65-6.39,6.31-4.98,10.58-1.82-4.13-6.57-6.15-10.82-4.51-4.26,1.63-6.43,6.31-5.02,10.59-1.82-4.13-6.57-6.15-10.82-4.51-4.26,1.63-6.43,6.31-5.02,10.6-1.82-4.13-6.57-6.15-10.82-4.51-4.26,1.63-6.43,6.31-5.02,10.59-1.82-4.13-6.57-6.15-10.82-4.51-4.26,1.63-6.43,6.31-5.02,10.6-1.82-4.13-6.57-6.15-10.82-4.51-.08.03-.16.07-.24.11,0,0,0,0,0,0,.28.66.55,1.33.83,2,.38.91.75,1.82,1.12,2.73.3.75.59,1.49.89,2.24.36.93.71,1.86,1.06,2.79.4,1.07.79,2.14,1.18,3.21.36,1,.72,2.01,1.06,3.01.28.83.56,1.66.83,2.49.26.78.51,1.56.76,2.35.28.86.55,1.72.82,2.59.34,1.1.66,2.2.98,3.3.36,1.22.7,2.45,1.04,3.67.18.65.35,1.29.53,1.94.27,1,.53,2.01.78,3.02.13.52.26,1.05.38,1.57.48,1.98.94,3.97,1.38,5.97.09.43.19.87.28,1.3.24,1.13.47,2.26.69,3.39.09.45.17.89.26,1.34.7,3.68,1.32,7.4,1.85,11.14.06.41.11.81.17,1.22.17,1.23.33,2.46.48,3.7.1-.01.2-.02.31-.03,4.5-.71,7.61-4.84,7.12-9.32.92,4.41,5.15,7.38,9.65,6.66,4.5-.71,7.6-4.84,7.12-9.32.92,4.41,5.15,7.38,9.65,6.66,4.5-.71,7.61-4.84,7.12-9.32.92,4.41,5.15,7.38,9.65,6.66,4.5-.71,7.6-4.84,7.12-9.32.92,4.41,5.15,7.38,9.65,6.66,4.5-.71,7.61-4.84,7.12-9.32.92,4.39,5.09,7.33,9.56,6.67-.25-1.9-.52-3.8-.8-5.69-.18-1.22-.37-2.43-.57-3.64Z" fill="#f7f7f7"/>
    <path d="M192.48,421.98c.08-.06.17-.12.25-.18,3.54-2.87,4.17-7.99,1.5-11.63,3,3.36,8.15,3.82,11.69.95,3.54-2.87,4.17-7.99,1.5-11.63,3,3.36,8.15,3.82,11.69.95,3.54-2.87,4.17-7.99,1.5-11.63,3,3.36,8.15,3.82,11.69.95,3.54-2.87,4.17-7.99,1.5-11.63,3,3.36,8.15,3.82,11.69.95,3.54-2.87,4.17-7.99,1.5-11.63,2.98,3.33,8.05,3.8,11.59,1.02,0,0,.02-.01.03-.02-17.61-23.01-37.88-43.12-60.11-60.17-.02.02-.03.04-.04.06-2.79,3.54-2.32,8.61,1.02,11.59-3.64-2.66-8.76-2.04-11.63,1.5-2.87,3.54-2.42,8.68.95,11.69-3.64-2.66-8.76-2.04-11.63,1.5-2.87,3.54-2.42,8.68.95,11.69-3.64-2.66-8.76-2.04-11.63,1.5-2.87,3.54-2.42,8.68.95,11.69-3.64-2.66-8.76-2.04-11.63,1.5-2.87,3.54-2.42,8.68.95,11.69-3.64-2.66-8.76-2.04-11.63,1.5-.06.07-.1.14-.15.21,17.69,13.31,33.73,29.23,47.52,47.58Z" fill="#f7f7f7"/>
    <path d="M54.83,332.25c1.41.33,2.82.68,4.23,1.03.82.21,1.63.42,2.45.63.57.15,1.14.31,1.71.46,10.46,2.85,20.82,6.44,31.01,10.78,0-.01.01-.03.02-.04.04-.08.07-.16.11-.24,1.63-4.26-.39-9-4.51-10.82,4.28,1.41,8.96-.77,10.6-5.02,1.63-4.26-.39-9-4.51-10.82,4.28,1.41,8.96-.77,10.59-5.02,1.63-4.26-.39-9-4.51-10.82,4.28,1.41,8.96-.77,10.6-5.02,1.63-4.26-.39-9-4.51-10.82,4.28,1.41,8.96-.77,10.59-5.02,1.63-4.26-.39-9-4.51-10.82,4.26,1.4,8.9-.74,10.56-4.95-12.97-5.39-26.13-9.87-39.42-13.48-.62-.17-1.23-.34-1.85-.5-1.22-.32-2.44-.64-3.66-.95-1.77-.45-3.55-.88-5.34-1.3-.52-.12-1.05-.24-1.57-.36-2.23-.51-4.46-1-6.71-1.46-.28-.06-.56-.12-.85-.17-7.56-1.55-15.15-2.83-22.75-3.83,0,.01,0,.03,0,.04-.66,4.47,2.29,8.65,6.67,9.56-4.48-.49-8.61,2.61-9.32,7.12-.71,4.5,2.25,8.73,6.66,9.65-4.48-.49-8.61,2.62-9.32,7.12-.71,4.5,2.25,8.73,6.66,9.65-4.48-.49-8.61,2.61-9.32,7.12-.71,4.5,2.25,8.73,6.66,9.65-4.48-.49-8.61,2.62-9.32,7.12-.71,4.5,2.25,8.73,6.66,9.65-4.48-.49-8.61,2.61-9.32,7.12-.01.09-.02.17-.03.26,8.38,1.02,16.73,2.49,25.04,4.42.17.04.33.08.5.12Z" fill="#f7f7f7"/>
  </g>
  <g id="zone-5" data-color-id="BK000">
  </g>
</svg>